<svg width="32" height="24" viewBox="0 0 32 24" fill="none" xmlns="http://www.w3.org/2000/svg">
<path d="M0 4.58893V23.1418C0 23.7482 0.635 24.1629 1.21889 23.9379L8.88889 20.5714V0L1.11778 2.99732C0.787877 3.12456 0.505072 3.34419 0.305839 3.62788C0.106605 3.91157 7.90115e-05 4.24631 0 4.58893H0ZM10.6667 20.5714L21.3333 24V3.42857L10.6667 0V20.5714ZM30.7811 0.0621428L23.1111 3.42857V24L30.8822 21.0027C31.2122 20.8755 31.495 20.6559 31.6943 20.3722C31.8935 20.0885 32 19.7537 32 19.4111V0.858214C32 0.251786 31.365 -0.162857 30.7811 0.0621428Z" fill="#FFF7EF"/>
</svg>
