<svg width="32" height="24" viewBox="0 0 32 24" fill="none" xmlns="http://www.w3.org/2000/svg">
<path d="M23.1111 8.57143C23.1111 3.83732 17.9378 0 11.5556 0C5.17333 0 0 3.83732 0 8.57143C0 10.4073 0.785 12.1045 2.10944 13.4989C1.36722 15.1189 0.14 16.4014 0.122222 16.4196C0.0624016 16.4804 0.0223711 16.5567 0.00708616 16.6392C-0.00819874 16.7217 0.00193318 16.8067 0.0362276 16.8836C0.070522 16.9606 0.127473 17.0262 0.200031 17.0723C0.272588 17.1183 0.357566 17.1429 0.444444 17.1429C2.47667 17.1429 4.16278 16.4866 5.37389 15.8046C7.16278 16.6479 9.27889 17.1429 11.5556 17.1429C17.9378 17.1429 23.1111 13.3055 23.1111 8.57143ZM10.6667 13.7143V12.8416C10.0394 12.8105 9.42945 12.5995 8.92389 12.2336C8.70722 12.0766 8.69611 11.7638 8.89222 11.5832L9.545 10.9827C9.69889 10.8412 9.92778 10.8348 10.1078 10.9436C10.3228 11.0732 10.5667 11.1429 10.82 11.1429H12.3817C12.7428 11.1429 13.0372 10.8257 13.0372 10.4362C13.0372 10.1175 12.8367 9.83679 12.55 9.75429L10.05 9.03107C9.01722 8.73214 8.29556 7.77643 8.29556 6.70661C8.29556 5.39304 9.35389 4.32589 10.6661 4.29214V3.42857C10.6661 3.19179 10.865 3 11.1106 3H11.9994C12.245 3 12.4439 3.19179 12.4439 3.42857V4.30125C13.0711 4.33232 13.6811 4.54286 14.1867 4.90929C14.4033 5.06625 14.4144 5.37911 14.2183 5.55964L13.5656 6.16018C13.4117 6.30161 13.1828 6.30804 13.0028 6.19929C12.7878 6.06911 12.5439 6 12.2906 6H10.7289C10.3678 6 10.0733 6.31714 10.0733 6.70661C10.0733 7.02536 10.2739 7.30607 10.5606 7.38857L13.0606 8.11179C14.0933 8.41071 14.815 9.36643 14.815 10.4362C14.815 11.7504 13.7567 12.817 12.4444 12.8507V13.7143C12.4444 13.9511 12.2456 14.1429 12 14.1429H11.1111C10.8656 14.1429 10.6667 13.9511 10.6667 13.7143ZM29.8894 20.3566C31.215 18.9621 32 17.2645 32 15.4286C32 11.8425 29.0283 8.775 24.815 7.49625C24.8628 7.84982 24.8889 8.20821 24.8889 8.57143C24.8889 14.243 18.9078 18.8571 11.5556 18.8571C10.9567 18.8571 10.3711 18.8159 9.79278 18.7564C11.5444 21.8373 15.6539 24 20.4444 24C22.7211 24 24.8372 23.505 26.6261 22.6618C27.8372 23.3438 29.5233 24 31.5556 24C31.7333 24 31.8939 23.8977 31.9633 23.7407C32.0339 23.5832 32 23.4011 31.8772 23.2762C31.86 23.2586 30.6317 21.9777 29.8894 20.3566Z" fill="#FFF7EF"/>
</svg>
