<svg width="25" height="25" viewBox="0 0 25 25" fill="none" xmlns="http://www.w3.org/2000/svg">
<circle cx="12.5" cy="12.5" r="12.5" fill="white"/>
<path d="M10.0171 17.078C10.0171 17.14 9.94758 17.1896 9.85988 17.1896C9.76008 17.1989 9.69052 17.1493 9.69052 17.078C9.69052 17.0159 9.76008 16.9663 9.84778 16.9663C9.93851 16.957 10.0171 17.0066 10.0171 17.078ZM9.07661 16.9384C9.05544 17.0004 9.11593 17.0718 9.20665 17.0904C9.28528 17.1214 9.37601 17.0904 9.39415 17.0283C9.4123 16.9663 9.35484 16.895 9.26411 16.8671C9.18548 16.8454 9.09778 16.8764 9.07661 16.9384ZM10.4133 16.8857C10.3256 16.9074 10.2651 16.9663 10.2742 17.0377C10.2833 17.0997 10.3619 17.14 10.4526 17.1183C10.5403 17.0966 10.6008 17.0377 10.5917 16.9756C10.5827 16.9167 10.501 16.8764 10.4133 16.8857ZM12.4032 5C8.20867 5 5 8.26608 5 12.5681C5 16.0079 7.11089 18.9514 10.126 19.9874C10.5131 20.0587 10.6492 19.8137 10.6492 19.6121C10.6492 19.4198 10.6401 18.359 10.6401 17.7076C10.6401 17.7076 8.52319 18.1729 8.07863 16.7833C8.07863 16.7833 7.73387 15.8807 7.2379 15.6481C7.2379 15.6481 6.54536 15.1611 7.28629 15.1704C7.28629 15.1704 8.03931 15.2325 8.45363 15.9707C9.11593 17.1679 10.2258 16.8236 10.6583 16.6189C10.7278 16.1227 10.9244 15.7784 11.1421 15.5737C9.45161 15.3814 7.74597 15.1301 7.74597 12.1463C7.74597 11.2933 7.97581 10.8653 8.45968 10.3194C8.38105 10.1178 8.12399 9.28653 8.53831 8.21335C9.17036 8.01174 10.625 9.05081 10.625 9.05081C11.2298 8.87711 11.88 8.78716 12.5242 8.78716C13.1683 8.78716 13.8185 8.87711 14.4234 9.05081C14.4234 9.05081 15.878 8.00864 16.5101 8.21335C16.9244 9.28964 16.6673 10.1178 16.5887 10.3194C17.0726 10.8684 17.369 11.2964 17.369 12.1463C17.369 15.1394 15.5877 15.3783 13.8972 15.5737C14.1754 15.8187 14.4113 16.2839 14.4113 17.0128C14.4113 18.0581 14.4022 19.3515 14.4022 19.6059C14.4022 19.8075 14.5413 20.0525 14.9254 19.9812C17.9496 18.9514 20 16.0079 20 12.5681C20 8.26608 16.5978 5 12.4032 5ZM7.93952 15.6977C7.9002 15.7287 7.90927 15.8001 7.96069 15.859C8.00907 15.9086 8.07863 15.9304 8.11794 15.89C8.15726 15.859 8.14819 15.7877 8.09677 15.7287C8.04839 15.6791 7.97883 15.6574 7.93952 15.6977ZM7.6129 15.4465C7.59173 15.4868 7.62198 15.5364 7.68246 15.5675C7.73085 15.5985 7.79133 15.5892 7.8125 15.5457C7.83367 15.5054 7.80343 15.4558 7.74294 15.4248C7.68246 15.4062 7.63407 15.4155 7.6129 15.4465ZM8.59274 16.5507C8.54435 16.591 8.5625 16.6841 8.63206 16.743C8.70161 16.8143 8.78931 16.8236 8.82863 16.774C8.86794 16.7337 8.8498 16.6406 8.78931 16.5817C8.72278 16.5104 8.63206 16.5011 8.59274 16.5507ZM8.24798 16.0947C8.1996 16.1258 8.1996 16.2064 8.24798 16.2777C8.29637 16.3491 8.37802 16.3801 8.41734 16.3491C8.46573 16.3088 8.46573 16.2281 8.41734 16.1568C8.375 16.0854 8.29637 16.0544 8.24798 16.0947Z" fill="#1F1E1F"/>
</svg>
